REM DIRINDEX 1\2,1\3,1\4,1\5
REM DIRNAME cjc005,folder01,folder02,folder03,folder04
TITLE ""
FILE "P1Q_t_1220-1229.mp3" MP3
  TRACK 01 AUDIO
    TITLE "3:cjc005_4566"
    INDEX 01 00:00:00
  TRACK 02 AUDIO
    TITLE "0:"
    INDEX 01 00:01:09
  TRACK 03 AUDIO
    TITLE "4:cjc005_4567"
    INDEX 01 00:01:34
  TRACK 04 AUDIO
    TITLE "0:"
    INDEX 01 00:02:57
  TRACK 05 AUDIO
    TITLE "5:cjc005_4568"
    INDEX 01 00:03:10
  TRACK 06 AUDIO
    TITLE "0:"
    INDEX 01 00:06:37
  TRACK 07 AUDIO
    TITLE "3:cjc005_4569"
    INDEX 01 00:07:15
  TRACK 08 AUDIO
    TITLE "0:"
    INDEX 01 00:08:26
  TRACK 09 AUDIO
    TITLE "4:cjc005_4570"
    INDEX 01 00:08:54
  TRACK 10 AUDIO
    TITLE "0:"
    INDEX 01 00:10:27
  TRACK 11 AUDIO
    TITLE "5:cjc005_4571"
    INDEX 01 00:10:53
  TRACK 12 AUDIO
    TITLE "0:"
    INDEX 01 00:14:45
  TRACK 13 AUDIO
    TITLE "3:cjc005_4572"
    INDEX 01 00:15:25
  TRACK 14 AUDIO
    TITLE "0:"
    INDEX 01 00:16:57
  TRACK 15 AUDIO
    TITLE "4:cjc005_4573"
    INDEX 01 00:17:10
  TRACK 16 AUDIO
    TITLE "0:"
    INDEX 01 00:18:54
  TRACK 17 AUDIO
    TITLE "5:cjc005_4574"
    INDEX 01 00:19:03
  TRACK 18 AUDIO
    TITLE "0:"
    INDEX 01 00:22:03
  TRACK 19 AUDIO
    TITLE "3:cjc005_4575"
    INDEX 01 00:22:58
  TRACK 20 AUDIO
    TITLE "0:"
    INDEX 01 00:24:00
  TRACK 21 AUDIO
    TITLE "4:cjc005_4576"
    INDEX 01 00:24:35
  TRACK 22 AUDIO
    TITLE "0:"
    INDEX 01 00:25:45
  TRACK 23 AUDIO
    TITLE "5:cjc005_4577"
    INDEX 01 00:25:70
  TRACK 24 AUDIO
    TITLE "0:"
    INDEX 01 00:29:17
  TRACK 25 AUDIO
    TITLE "3:cjc005_4578"
    INDEX 01 00:29:70
  TRACK 26 AUDIO
    TITLE "0:"
    INDEX 01 00:31:14
  TRACK 27 AUDIO
    TITLE "4:cjc005_4579"
    INDEX 01 00:31:39
  TRACK 28 AUDIO
    TITLE "0:"
    INDEX 01 00:32:58
  TRACK 29 AUDIO
    TITLE "5:cjc005_4580"
    INDEX 01 00:33:07
  TRACK 30 AUDIO
    TITLE "0:"
    INDEX 01 00:35:63
  TRACK 31 AUDIO
    TITLE "3:cjc005_4581"
    INDEX 01 00:36:36
  TRACK 32 AUDIO
    TITLE "0:"
    INDEX 01 00:37:54
  TRACK 33 AUDIO
    TITLE "4:cjc005_4582"
    INDEX 01 00:38:08
  TRACK 34 AUDIO
    TITLE "0:"
    INDEX 01 00:39:27
  TRACK 35 AUDIO
    TITLE "5:cjc005_4583"
    INDEX 01 00:39:52
  TRACK 36 AUDIO
    TITLE "0:"
    INDEX 01 00:43:15
  TRACK 37 AUDIO
    TITLE "3:cjc005_4584"
    INDEX 01 00:43:66
  TRACK 38 AUDIO
    TITLE "0:"
    INDEX 01 00:45:06
  TRACK 39 AUDIO
    TITLE "4:cjc005_4585"
    INDEX 01 00:45:30
  TRACK 40 AUDIO
    TITLE "0:"
    INDEX 01 00:46:39
  TRACK 41 AUDIO
    TITLE "5:cjc005_4586"
    INDEX 01 00:46:68
  TRACK 42 AUDIO
    TITLE "0:"
    INDEX 01 00:51:05
  TRACK 43 AUDIO
    TITLE "3:cjc005_4587"
    INDEX 01 00:51:58
  TRACK 44 AUDIO
    TITLE "0:"
    INDEX 01 00:53:08
  TRACK 45 AUDIO
    TITLE "4:cjc005_4588"
    INDEX 01 00:53:35
  TRACK 46 AUDIO
    TITLE "0:"
    INDEX 01 00:54:62
  TRACK 47 AUDIO
    TITLE "5:cjc005_4589"
    INDEX 01 00:55:16
  TRACK 48 AUDIO
    TITLE "0:"
    INDEX 01 00:59:20
  TRACK 49 AUDIO
    TITLE "3:cjc005_4590"
    INDEX 01 01:00:04
  TRACK 50 AUDIO
    TITLE "0:"
    INDEX 01 01:01:17
  TRACK 51 AUDIO
    TITLE "4:cjc005_4591"
    INDEX 01 01:01:40
  TRACK 52 AUDIO
    TITLE "0:"
    INDEX 01 01:02:63
  TRACK 53 AUDIO
    TITLE "5:cjc005_4592"
    INDEX 01 01:03:14
  TRACK 54 AUDIO
    TITLE "0:"
    INDEX 01 01:08:17
  TRACK 55 AUDIO
    TITLE "3:cjc005_4593"
    INDEX 01 01:08:72
  TRACK 56 AUDIO
    TITLE "0:"
    INDEX 01 01:10:08
  TRACK 57 AUDIO
    TITLE "4:cjc005_4594"
    INDEX 01 01:10:37
  TRACK 58 AUDIO
    TITLE "0:"
    INDEX 01 01:12:05
  TRACK 59 AUDIO
    TITLE "5:cjc005_4595"
    INDEX 01 01:12:30
  TRACK 60 AUDIO
    TITLE "0:"
    INDEX 01 01:17:30
